<svg width="61" height="59" viewBox="0 0 61 59" fill="none" xmlns="http://www.w3.org/2000/svg">
<path d="M16.5271 58.8187L46 58.8187C54.2843 58.8187 61 52.103 61 43.8187L61 15.0508C61 6.8455 54.3082 -0.0811551 46.2913 1.66719C22.0065 6.96325 9.27374 26.0943 3.59772 42.7471C0.742464 51.1241 7.6769 58.8187 16.5271 58.8187Z" fill="#E9BC52"/>
<path d="M35.8574 45.4301C34.0423 44.5945 31.9848 43.0709 29.8588 41.6587C28.6519 40.8575 27.508 39.979 26.6279 38.8207C25.719 37.625 25.638 36.553 26.3282 35.4798C26.9815 34.4644 28.1219 34.0188 29.5115 34.3036C30.9152 34.5915 32.2757 34.6318 33.6945 34.2927C36.0697 33.7243 38.233 35.3704 38.3296 37.7719C38.3838 39.114 39.1386 40.0748 39.881 41.0702C40.4719 41.8626 40.8319 42.705 40.5785 43.7022C40.0506 45.7745 38.6969 46.3959 35.8574 45.4301Z" fill="white"/>
<path d="M40.5795 26.7981C40.1506 27.8902 39.6392 28.9285 38.693 29.6882C37.3459 30.7697 35.9255 30.5155 35.0441 29.0367C33.5481 26.5262 34.3751 23.5616 36.9143 22.3292C38.8837 21.3737 40.4612 22.1767 40.8153 24.3115C40.9574 25.1643 40.8229 25.986 40.5795 26.7981Z" fill="white"/>
<path d="M40.2212 29.4427C40.953 27.9446 41.9911 26.4017 43.9305 25.7406C45.8541 25.0851 47.2598 26.0779 47.3463 28.0986C47.4726 31.041 44.923 33.3696 41.9691 33.0112C40.2548 32.8032 39.5139 31.4546 40.2212 29.4427Z" fill="white"/>
<path d="M33.284 30.4059C32.7286 32.0007 31.6549 33.0435 29.9171 33.264C28.0226 33.5041 26.5419 31.8519 27.0939 30.0606C27.6393 28.2911 28.7944 26.9334 30.4723 26.0869C31.6434 25.4961 32.4777 25.8152 33.0686 26.9974C33.6193 28.0993 33.6971 29.243 33.284 30.4059Z" fill="white"/>
<path d="M46.3212 38.3821C45.9298 39.4325 45.187 40.667 43.825 41.4078C42.5322 42.1111 41.5137 41.6973 41.0682 40.2853C40.5645 38.6909 40.711 37.1241 41.5432 35.6933C42.2714 34.4412 44.4772 33.8487 45.7505 34.4589C46.7743 34.9487 47.037 36.3093 46.3212 38.3821Z" fill="white"/>
</svg>
